<!DOCTYPE svg PUBLIC "-//W3C//DTD SVG 1.1//EN" "http://www.w3.org/Graphics/SVG/1.1/DTD/svg11.dtd">
<!-- Uploaded to: SVG Repo, www.svgrepo.com, Transformed by: SVG Repo Mixer Tools -->
<svg width="800px" height="800px" viewBox="-88.44 0 358.742 358.742" xmlns="http://www.w3.org/2000/svg" fill="#000000">
<g id="SVGRepo_bgCarrier" stroke-width="0"/>
<g id="SVGRepo_tracerCarrier" stroke-linecap="round" stroke-linejoin="round"/>
<g id="SVGRepo_iconCarrier">
<defs>
<style>.a{fill:#ffffff;}.b{fill:#2600FF;}.c{fill:#121212;}</style>
</defs>
<path class="a" d="M31.855,2.408H149.982A29.458,29.458,0,0,1,179.44,31.866V326.887a29.455,29.455,0,0,1-29.455,29.455H31.855A29.455,29.455,0,0,1,2.4,326.887V31.863A29.455,29.455,0,0,1,31.855,2.408Z"/>
<path class="b" d="M146.1,2.408c0,.065-3.117,1.043-3.117,4.078V11.1a12,12,0,0,1-11.977,12c-11.415.016-28.527.039-40.084.062-11.557-.023-28.669-.046-40.084-.062a12,12,0,0,1-11.977-12V6.486c0-2.963-2.835-4.017-2.835-4.078"/>
<path class="b" d="M144.4.711c.914-.813-.258-.012-.562.183a7.678,7.678,0,0,0-2.122,1.989c-1.368,1.9-1.136,4.227-1.136,6.443a12.634,12.634,0,0,1-.993,6.048,9.785,9.785,0,0,1-3.748,4.014,10.5,10.5,0,0,1-5.508,1.318l-6.925.009-15.512.023q-14.51.023-29.018.008-7.842-.014-15.685-.024l-7.414-.011a43.5,43.5,0,0,1-6.348-.1A9.7,9.7,0,0,1,41.3,12.139c-.244-2.531.472-5.416-.425-7.847a6.725,6.725,0,0,0-1.993-2.846A9.511,9.511,0,0,0,37.778.64c-.3-.185-.81-.624-.057.071-2.268-2.091-5.671,1.3-3.394,3.394a10.586,10.586,0,0,0,1.323.87,2.1,2.1,0,0,1,.782,1.163,15.625,15.625,0,0,1,.027,2.789,30.455,30.455,0,0,0,.163,4.207,14.382,14.382,0,0,0,7.817,10.859c4.34,2.093,9.313,1.516,13.994,1.522q7.964.012,15.927.024,14.912.022,29.824,0l16.274-.025,7.431-.01a25.192,25.192,0,0,0,7.1-.568,14.507,14.507,0,0,0,10.074-10.823,20.871,20.871,0,0,0,.32-4.153,23.171,23.171,0,0,1,.017-3.793,1.93,1.93,0,0,1,.863-1.133,9.861,9.861,0,0,0,1.534-.934C150.109,2.049,146.7-1.336,144.4.711Z"/>
<path class="b" d="M149.982,353.942H32.924c-10.894,0-20.753-5.561-25.554-15.535-3.642-7.566-2.57-17.116-2.57-25.321V33.133c0-7.835,2.546-15.173,8.264-20.715a27.24,27.24,0,0,1,18.8-7.61c1.054-.008,2.109,0,3.163,0H143.012c5.695,0,11.234-.261,16.7,1.8,10.544,3.97,17.3,14.431,17.33,25.555.006,2.361,0,4.722,0,7.083V308.9c0,6.157.1,12.325,0,18.482a27.347,27.347,0,0,1-27.054,26.559c-3.087.026-3.095,4.826,0,4.8a32.213,32.213,0,0,0,31.6-27.944,64.356,64.356,0,0,0,.259-8.086V53.228c0-7.079.041-14.16,0-21.239A32.294,32.294,0,0,0,160.986,1.976C155.248-.188,149.351.008,143.364.008H34.663c-1.264,0-2.532-.026-3.795.016A32.135,32.135,0,0,0,10,8.705,32.609,32.609,0,0,0,0,32.793V324.851c0,6.252,1.041,12.315,4.2,17.834,5.9,10.3,16.863,16.057,28.579,16.057h117.2C153.07,358.742,153.076,353.942,149.982,353.942Z"/>
<path class="b" d="M59.391,344.307l21.815,0,32.262-.006,8.981,0c3.089,0,3.094-4.8,0-4.8q-11.031,0-22.063,0l-32.193.006-8.8,0c-3.089,0-3.094,4.8,0,4.8Z"/>
<path class="c" d="M72.589,15.583q11.6,0,23.2-.012c3.088,0,3.093-4.8,0-4.8q-11.6,0-23.2.012c-3.089,0-3.094,4.8,0,4.8Z"/>
<path class="c" d="M109.251,15.983c3.6,0,3.61-5.6,0-5.6s-3.609,5.6,0,5.6Z"/>
<path class="b" d="M34.956,267.48a2.769,2.769,0,0,0-2.517,3.032c0,1.892.974,3.089,2.517,3.089,1.58,0,2.518-1.2,2.518-3.089A2.767,2.767,0,0,0,34.956,267.48Z"/>
<path class="b" d="M41.548,267.48a2.768,2.768,0,0,0-2.517,3.032c0,1.892.973,3.089,2.517,3.089,1.579,0,2.517-1.2,2.517-3.089A2.766,2.766,0,0,0,41.548,267.48Z"/>
<path class="b" d="M48.139,267.48a2.769,2.769,0,0,0-2.517,3.032c0,1.892.974,3.089,2.517,3.089,1.58,0,2.518-1.2,2.518-3.089A2.766,2.766,0,0,0,48.139,267.48Z"/>
<path class="b" d="M54.731,267.48a2.768,2.768,0,0,0-2.517,3.032c0,1.892.973,3.089,2.517,3.089,1.58,0,2.517-1.2,2.517-3.089A2.766,2.766,0,0,0,54.731,267.48Z"/>
<path class="b" d="M65.674,267.48a2.768,2.768,0,0,0-2.517,3.032c0,1.892.973,3.089,2.517,3.089,1.579,0,2.517-1.2,2.517-3.089A2.766,2.766,0,0,0,65.674,267.48Z"/>
<path class="b" d="M72.265,267.48a2.769,2.769,0,0,0-2.517,3.032c0,1.892.974,3.089,2.517,3.089,1.58,0,2.518-1.2,2.518-3.089A2.766,2.766,0,0,0,72.265,267.48Z"/>
<path class="b" d="M78.857,267.48a2.769,2.769,0,0,0-2.517,3.032c0,1.892.973,3.089,2.517,3.089,1.58,0,2.517-1.2,2.517-3.089A2.766,2.766,0,0,0,78.857,267.48Z"/>
<path class="b" d="M85.448,267.48a2.769,2.769,0,0,0-2.517,3.032c0,1.892.974,3.089,2.518,3.089,1.579,0,2.517-1.2,2.517-3.089A2.766,2.766,0,0,0,85.448,267.48Z"/>
<path class="b" d="M96.391,267.48a2.769,2.769,0,0,0-2.517,3.032c0,1.892.974,3.089,2.517,3.089,1.58,0,2.518-1.2,2.518-3.089A2.766,2.766,0,0,0,96.391,267.48Z"/>
<path class="b" d="M102.983,267.48a2.769,2.769,0,0,0-2.517,3.032c0,1.892.973,3.089,2.517,3.089,1.58,0,2.517-1.2,2.517-3.089A2.766,2.766,0,0,0,102.983,267.48Z"/>
<path class="b" d="M109.574,267.48a2.769,2.769,0,0,0-2.517,3.032c0,1.892.974,3.089,2.518,3.089,1.579,0,2.517-1.2,2.517-3.089A2.766,2.766,0,0,0,109.574,267.48Z"/>
<path class="b" d="M116.166,267.48a2.769,2.769,0,0,0-2.517,3.032c0,1.892.973,3.089,2.517,3.089,1.58,0,2.517-1.2,2.517-3.089A2.766,2.766,0,0,0,116.166,267.48Z"/>
<path class="b" d="M127.109,267.48a2.769,2.769,0,0,0-2.517,3.032c0,1.892.973,3.089,2.517,3.089,1.58,0,2.517-1.2,2.517-3.089A2.766,2.766,0,0,0,127.109,267.48Z"/>
<path class="b" d="M133.7,267.48a2.769,2.769,0,0,0-2.517,3.032c0,1.892.974,3.089,2.518,3.089,1.579,0,2.517-1.2,2.517-3.089A2.766,2.766,0,0,0,133.7,267.48Z"/>
<path class="b" d="M140.292,267.48a2.769,2.769,0,0,0-2.517,3.032c0,1.892.973,3.089,2.517,3.089,1.58,0,2.517-1.2,2.517-3.089A2.766,2.766,0,0,0,140.292,267.48Z"/>
<path class="b" d="M146.884,267.48a2.769,2.769,0,0,0-2.518,3.032c0,1.892.974,3.089,2.518,3.089,1.579,0,2.517-1.2,2.517-3.089A2.766,2.766,0,0,0,146.884,267.48Z"/>
<path class="b" d="M109.359,220.87h-7.477v35.178h7.477Z"/>
<path class="b" d="M109.359,218.47q-3.738-.012-7.477,0a2.436,2.436,0,0,0-2.4,2.4v35.178a2.435,2.435,0,0,0,2.4,2.4h7.477a2.435,2.435,0,0,0,2.4-2.4V220.87c0-3.089-4.8-3.094-4.8,0v35.177l2.4-2.4h-7.477l2.4,2.4V220.869l-2.4,2.4q3.738-.011,7.477,0C112.448,223.279,112.452,218.479,109.359,218.47Z"/>
<path class="b" d="M92.093,220.87H88.152v35.178h3.941Z"/>
<path class="b" d="M92.093,218.47q-1.971-.006-3.941,0a2.436,2.436,0,0,0-2.4,2.4v35.178a2.435,2.435,0,0,0,2.4,2.4h3.941a2.435,2.435,0,0,0,2.4-2.4V220.87c0-3.089-4.8-3.094-4.8,0v35.177l2.4-2.4H88.152l2.4,2.4V220.869l-2.4,2.4q1.971,0,3.941,0C95.182,223.279,95.186,218.479,92.093,218.47Z"/>
<path class="b" d="M54.673,220.87H50.732v35.178h3.941Z"/>
<path class="b" d="M54.673,218.47q-1.971-.006-3.941,0a2.436,2.436,0,0,0-2.4,2.4v35.178a2.435,2.435,0,0,0,2.4,2.4h3.941a2.435,2.435,0,0,0,2.4-2.4V220.87c0-3.089-4.8-3.094-4.8,0v35.177l2.4-2.4H50.732l2.4,2.4V220.869l-2.4,2.4q1.97,0,3.941,0C57.761,223.279,57.766,218.479,54.673,218.47Z"/>
<path class="b" d="M63.845,220.869v35.178c0,3.089,4.8,3.094,4.8,0V220.869c0-3.088-4.8-3.093-4.8,0Z"/>
<path class="b" d="M75.213,220.869v35.178c0,3.089,4.8,3.094,4.8,0V220.869c0-3.088-4.8-3.093-4.8,0Z"/>
<path class="b" d="M117.6,220.869v35.178c0,3.089,4.8,3.094,4.8,0V220.869c0-3.088-4.8-3.093-4.8,0Z"/>
<path class="b" d="M128.8,220.869v35.178c0,3.089,4.8,3.094,4.8,0V220.869c0-3.088-4.8-3.093-4.8,0Z"/>
<path class="b" d="M140,220.869v35.178c0,3.089,4.8,3.094,4.8,0V220.869c0-3.088-4.8-3.093-4.8,0Z"/>
<path class="b" d="M37.043,220.869v35.178c0,3.089,4.8,3.094,4.8,0V220.869c0-3.088-4.8-3.093-4.8,0Z"/>
<path class="b" d="M78.845,79.884H43.668a2.433,2.433,0,0,0-2.4,2.4v35.177a2.434,2.434,0,0,0,2.4,2.4H78.845a2.433,2.433,0,0,0,2.4-2.4q0-17.587,0-35.177c0-3.089-4.8-3.094-4.8,0q0,17.589,0,35.177l2.4-2.4H43.668l2.4,2.4V82.284l-2.4,2.4H78.845C81.934,84.684,81.939,79.884,78.845,79.884Z"/>
<path class="b" d="M88.49,82.284v35.177c0,3.089,4.8,3.094,4.8,0V82.284c0-3.089-4.8-3.094-4.8,0Z"/>
<path class="b" d="M78.846,126.274H43.668c-3.089,0-3.094,4.8,0,4.8H78.846c3.088,0,3.093-4.8,0-4.8Z"/>
<path class="b" d="M136.935,126.274h-19.28c-3.089,0-3.094,4.8,0,4.8h19.28c3.088,0,3.093-4.8,0-4.8Z"/>
<path class="b" d="M90.356,131.074h17.068l-2.4-2.4v17.068a2.435,2.435,0,0,0,2.4,2.4h17.068l-2.4-2.4v17.1c0,3.089,4.8,3.094,4.8,0v-17.1a2.435,2.435,0,0,0-2.4-2.4H107.424l2.4,2.4V128.674a2.435,2.435,0,0,0-2.4-2.4H90.356c-3.088,0-3.093,4.8,0,4.8Z"/>
<path class="b" d="M88.55,140.2v35.178a2.435,2.435,0,0,0,2.4,2.4h11.623c3.088,0,3.093-4.8,0-4.8H90.95l2.4,2.4V140.2c0-3.089-4.8-3.094-4.8,0Z"/>
<path class="b" d="M113.6,177.775h23.334a2.435,2.435,0,0,0,2.4-2.4V150.758c0-3.089-4.8-3.094-4.8,0v24.617l2.4-2.4H113.6c-3.089,0-3.094,4.8,0,4.8Z"/>
<path class="b" d="M66.182,94.948h-9.85V104.8h9.85Z"/>
<path class="b" d="M66.182,92.548h-9.85a2.434,2.434,0,0,0-2.4,2.4V104.8a2.434,2.434,0,0,0,2.4,2.4h9.85a2.435,2.435,0,0,0,2.4-2.4V94.948a2.4,2.4,0,0,0-4.8,0V104.8l2.4-2.4h-9.85l2.4,2.4V94.948l-2.4,2.4h9.85a2.4,2.4,0,1,0,0-4.8Z"/>
<path class="b" d="M138.172,79.884H103a2.433,2.433,0,0,0-2.4,2.4v35.177a2.434,2.434,0,0,0,2.4,2.4h35.177a2.433,2.433,0,0,0,2.4-2.4q0-17.587,0-35.177c0-3.089-4.8-3.094-4.8,0q0,17.589,0,35.177l2.4-2.4H103l2.4,2.4V82.284l-2.4,2.4h35.177C141.261,84.684,141.266,79.884,138.172,79.884Z"/>
<path class="b" d="M125.508,94.948h-9.849V104.8h9.849Z"/>
<path class="b" d="M125.508,92.548h-9.849a2.434,2.434,0,0,0-2.4,2.4V104.8a2.434,2.434,0,0,0,2.4,2.4h9.849a2.434,2.434,0,0,0,2.4-2.4V94.948a2.4,2.4,0,0,0-4.8,0V104.8l2.4-2.4h-9.849l2.4,2.4V94.948l-2.4,2.4h9.849a2.4,2.4,0,1,0,0-4.8Z"/>
<path class="b" d="M113,157.714H103.66v4.2H113Z"/>
<path class="b" d="M113,155.314H103.66a2.435,2.435,0,0,0-2.4,2.4v4.2a2.435,2.435,0,0,0,2.4,2.4H113a2.435,2.435,0,0,0,2.4-2.4v-4.2a2.4,2.4,0,1,0-4.8,0v4.2l2.4-2.4H103.66l2.4,2.4v-4.2l-2.4,2.4H113a2.4,2.4,0,1,0,0-4.8Z"/>
<path class="b" d="M124.492,128.833v5.579"/>
<path class="b" d="M122.092,128.833v5.579a2.471,2.471,0,0,0,.7,1.7,2.4,2.4,0,0,0,4.1-1.7v-5.579a2.477,2.477,0,0,0-.7-1.7,2.4,2.4,0,0,0-4.1,1.7Z"/>
<path class="b" d="M136.935,128.833v11.4"/>
<path class="b" d="M134.535,128.833v11.4a2.4,2.4,0,0,0,4.8,0v-11.4a2.4,2.4,0,0,0-4.8,0Z"/>
<path class="b" d="M78.845,137.8H43.668a2.434,2.434,0,0,0-2.4,2.4v35.178a2.435,2.435,0,0,0,2.4,2.4H78.845a2.435,2.435,0,0,0,2.4-2.4q0-17.589,0-35.178c0-3.088-4.8-3.094-4.8,0q0,17.589,0,35.178l2.4-2.4H43.668l2.4,2.4V140.2l-2.4,2.4H78.845C81.934,142.6,81.939,137.8,78.845,137.8Z"/>
<path class="b" d="M66.182,152.861h-9.85v9.85h9.849C66.182,158.691,66.182,154.659,66.182,152.861Z"/>
<path class="b" d="M66.182,150.461h-9.85a2.434,2.434,0,0,0-2.4,2.4v9.85a2.435,2.435,0,0,0,2.4,2.4h9.849a2.435,2.435,0,0,0,2.4-2.4q0-4.926,0-9.85a2.4,2.4,0,0,0-4.8,0q0,4.925,0,9.85l2.4-2.4H56.332l2.4,2.4v-9.85l-2.4,2.4h9.85a2.4,2.4,0,1,0,0-4.8Z"/>
</g>
</svg>